<svg width="46" height="48" viewBox="0 0 46 48" fill="none" xmlns="http://www.w3.org/2000/svg">
<g id="&#208;&#161;&#208;&#187;&#208;&#190;&#208;&#185;_1" clip-path="url(#clip0_190_1960)">
<path id="Vector" d="M41.2651 35.481H17.1038C16.8828 35.4769 16.6694 35.3998 16.4968 35.2617C16.3242 35.1236 16.2022 34.9324 16.1496 34.7177L9.06582 6.68685L0.9963 1.82054C0.774514 1.68643 0.614924 1.46989 0.552494 1.21834C0.490063 0.966794 0.529878 0.700751 0.663224 0.478508C0.79657 0.256265 1.01257 0.0959499 1.2639 0.0326608C1.51523 -0.0306283 1.7814 0.00827369 2.0041 0.140859L10.419 5.20827C10.6398 5.34154 10.7991 5.61518 10.8622 5.86437L17.8545 33.5916L40.4473 33.6018L43.3122 18.3318L16.0613 18.3239C15.5219 18.3279 15.0819 17.9296 15.0779 17.3871C15.074 16.8445 15.5093 16.4408 16.0495 16.4408H44.4888C45.1843 16.436 45.5589 16.9991 45.4548 17.5448L42.2153 34.6743C42.1733 34.8973 42.056 35.099 41.883 35.2459C41.71 35.3927 41.4919 35.4757 41.2651 35.481Z" fill="#1D1C1A"/>
<path id="Vector_2" d="M21.7919 48.0005C20.8901 48.0064 20.0068 47.7448 19.2537 47.2487C18.5006 46.7525 17.9115 46.0442 17.561 45.2133C17.2105 44.3824 17.1142 43.4662 17.2844 42.5806C17.4546 41.695 17.8836 40.8797 18.5171 40.2379C19.1506 39.5961 19.9603 39.1566 20.8436 38.9749C21.7269 38.7933 22.6443 38.8776 23.4797 39.2174C24.3151 39.5571 25.0309 40.1369 25.5368 40.8835C26.0426 41.6301 26.3157 42.51 26.3215 43.4118C26.3276 44.6204 25.8542 45.7822 25.0051 46.6423C24.156 47.5025 23.0005 47.9909 21.7919 48.0005ZM21.7454 40.8363C21.231 40.8402 20.7292 40.9965 20.3036 41.2854C19.8779 41.5743 19.5475 41.983 19.3539 42.4596C19.1604 42.9363 19.1125 43.4596 19.2163 43.9635C19.3201 44.4674 19.5709 44.9292 19.937 45.2905C20.3032 45.6519 20.7682 45.8967 21.2734 45.9939C21.7786 46.0912 22.3012 46.0364 22.7753 45.8367C23.2494 45.637 23.6537 45.3013 23.9371 44.8719C24.2205 44.4426 24.3702 43.9388 24.3674 43.4244C24.3622 42.7337 24.0832 42.0733 23.5916 41.5881C23.1001 41.1029 22.4361 40.8325 21.7454 40.8363Z" fill="#1D1C1A"/>
<path id="Vector_3" d="M37.774 47.8964C36.8722 47.9023 35.9889 47.6407 35.2358 47.1445C34.4827 46.6484 33.8937 45.9401 33.5431 45.1092C33.1926 44.2783 33.0963 43.3621 33.2665 42.4765C33.4367 41.5909 33.8657 40.7756 34.4992 40.1338C35.1328 39.492 35.9424 39.0525 36.8257 38.8708C37.7091 38.6892 38.6264 38.7736 39.4618 39.1133C40.2972 39.453 41.0131 40.0328 41.5189 40.7794C42.0248 41.526 42.2978 42.4058 42.3036 43.3077C42.3103 44.5165 41.8372 45.6786 40.9879 46.5389C40.1387 47.3992 38.9829 47.8874 37.774 47.8964ZM37.7267 40.7322C37.2123 40.7362 36.7107 40.8927 36.2851 41.1817C35.8596 41.4707 35.5292 41.8794 35.3359 42.356C35.1425 42.8327 35.0947 43.356 35.1985 43.8598C35.3024 44.3637 35.5533 44.8254 35.9194 45.1867C36.2856 45.548 36.7506 45.7927 37.2558 45.8899C37.7609 45.987 38.2836 45.9323 38.7576 45.7325C39.2317 45.5328 39.6359 45.1971 39.9193 44.7677C40.2026 44.3384 40.3523 43.8347 40.3495 43.3203C40.3443 42.6295 40.0652 41.9689 39.5735 41.4837C39.0817 40.9985 38.4175 40.7282 37.7267 40.7322Z" fill="#1D1C1A"/>
</g>
<defs>
<clipPath id="clip0_190_1960">
<rect width="44.949" height="48" fill="white" transform="translate(0.525513 0.000488281)"/>
</clipPath>
</defs>
</svg>
