<svg width="48" height="48" viewBox="0 0 48 48" fill="none" xmlns="http://www.w3.org/2000/svg">
<g clip-path="url(#clip0_190_1951)">
<path d="M46.2779 16.0393H20.9758C20.8571 16.0392 20.7395 16.0625 20.6298 16.1079C20.5202 16.1532 20.4205 16.2198 20.3366 16.3037C20.2526 16.3876 20.1861 16.4873 20.1407 16.597C20.0953 16.7067 20.072 16.8242 20.0721 16.9429V47.0635C20.0719 47.1822 20.0952 47.2998 20.1405 47.4095C20.1858 47.5193 20.2524 47.619 20.3363 47.7029C20.4203 47.7869 20.52 47.8534 20.6297 47.8988C20.7394 47.9441 20.857 47.9673 20.9758 47.9671H46.2779C46.3966 47.9673 46.5142 47.9441 46.6239 47.8988C46.7336 47.8534 46.8333 47.7869 46.9173 47.7029C47.0012 47.619 47.0678 47.5193 47.1131 47.4095C47.1585 47.2998 47.1817 47.1822 47.1815 47.0635V16.9429C47.1816 16.8242 47.1583 16.7067 47.1129 16.597C47.0675 16.4873 47.001 16.3876 46.9171 16.3037C46.8331 16.2198 46.7335 16.1532 46.6238 16.1079C46.5141 16.0625 46.3966 16.0392 46.2779 16.0393ZM42.2238 17.8465V20.9009C42.2236 21.0846 42.1505 21.2607 42.0206 21.3905C41.8908 21.5204 41.7147 21.5935 41.531 21.5937H40.8562C40.1932 21.5939 39.5574 21.8574 39.0886 22.3262C38.6198 22.795 38.3564 23.4307 38.3562 24.0937V28.6362C38.3564 28.819 38.2842 28.9945 38.1555 29.1243C38.0268 29.2541 37.8519 29.3277 37.6691 29.329H36.3438C36.1604 29.3279 35.9848 29.2546 35.8551 29.1249C35.7254 28.9952 35.6521 28.8196 35.651 28.6362V22.1603C35.651 21.4982 35.3884 20.8632 34.9208 20.3945C34.4532 19.9258 33.8187 19.6618 33.1567 19.6603H31.8314C31.501 19.6619 31.1742 19.7286 30.8696 19.8567C30.565 19.9848 30.2887 20.1717 30.0565 20.4067C29.8243 20.6417 29.6407 20.9203 29.5163 21.2263C29.3919 21.5324 29.329 21.86 29.3314 22.1904C29.3318 22.3731 29.2599 22.5486 29.1313 22.6784C29.0026 22.8083 28.8279 22.8819 28.6451 22.8832H27.9637C27.781 22.8819 27.6062 22.8083 27.4776 22.6784C27.349 22.5486 27.277 22.3731 27.2775 22.1904V17.8465H42.2238ZM45.3743 46.1615H21.8835V17.8465H25.4743V22.1904C25.4743 22.8523 25.7368 23.4872 26.2042 23.9559C26.6717 24.4245 27.3059 24.6887 27.9678 24.6904H28.6492C28.9793 24.6887 29.3057 24.6218 29.6099 24.4936C29.914 24.3654 30.1898 24.1784 30.4215 23.9433C30.6532 23.7083 30.8362 23.4297 30.9599 23.1237C31.0837 22.8177 31.1458 22.4903 31.1427 22.1603C31.1437 21.9769 31.2171 21.8013 31.3468 21.6716C31.4765 21.5419 31.652 21.4686 31.8355 21.4675H33.1608C33.3436 21.4688 33.5184 21.5424 33.6472 21.6722C33.7759 21.802 33.8481 21.9775 33.8478 22.1603V28.6362C33.8483 29.2991 34.1118 29.9348 34.5806 30.4035C35.0493 30.8723 35.6849 31.1358 36.3478 31.1362H37.6731C38.3351 31.1345 38.9694 30.8704 39.437 30.4017C39.9046 29.9331 40.1673 29.2982 40.1675 28.6362V24.0937C40.1685 23.9103 40.2418 23.7347 40.3715 23.605C40.5012 23.4753 40.6768 23.402 40.8602 23.4009H41.5351C42.198 23.4005 42.8336 23.137 43.3024 22.6682C43.7711 22.1995 44.0347 21.5638 44.0351 20.9009V17.8465H45.3783L45.3743 46.1615Z" fill="#1D1C1A"/>
<path d="M47.201 14.4405H45.4182V11.0214C45.4182 6.07752 40.4271 1.81098 33.4677 1.81098C27.0178 1.81098 21.7703 5.9432 21.7703 11.0214V14.4405H19.9883V11.0214C19.9883 4.94596 26.0344 0.00374603 33.4677 0.00374603C41.9454 0.00374603 47.201 5.51988 47.201 11.0214V14.4405Z" fill="#1D1C1A"/>
<path d="M7.6657 48.0005H7.62174C6.03837 48.0005 5.0916 46.7322 5.0916 44.8199V32.4558L1.10266 28.5548C0.920457 28.3887 0.810575 28.1578 0.79657 27.9117V25.3775C0.796976 25.26 0.820799 25.1437 0.866628 25.0355C0.912458 24.9272 0.979368 24.8292 1.06349 24.7472C1.14761 24.6651 1.24724 24.6006 1.35656 24.5575C1.46588 24.5143 1.5827 24.4934 1.7002 24.4958H13.1468C13.645 24.4958 14.0822 24.8785 14.0822 25.3775V27.9117C14.0702 28.1385 13.9765 28.3534 13.8184 28.5165L10.405 32.2808V44.8175C10.405 46.6442 9.27186 48.0005 7.6657 48.0005ZM2.63882 27.5348L6.52274 31.4358C6.69451 31.6051 6.72626 31.8363 6.72626 32.0789V44.8199C6.72626 45.3206 6.92652 46.1615 7.62174 46.1615H7.6657C8.60351 46.1615 8.56605 44.9567 8.56605 44.8199V31.934C8.57791 31.7074 8.67163 31.4927 8.82981 31.33L12.2448 27.5657V26.3332H2.63882V27.5348Z" fill="#1D1C1A"/>
<path d="M14.0846 23.269H12.2448V15.5061H2.63882V23.2731H0.799011V14.5333C0.799713 14.4163 0.823805 14.3008 0.869885 14.1933C0.915964 14.0858 0.983106 13.9887 1.06732 13.9076C1.15153 13.8265 1.25112 13.7631 1.36023 13.7211C1.46935 13.6791 1.58578 13.6593 1.70264 13.663H13.1493C13.6475 13.663 14.0846 14.0342 14.0846 14.5333V23.269Z" fill="#1D1C1A"/>
</g>
<defs>
<clipPath id="clip0_190_1951">
<rect width="46.402" height="48" fill="white" transform="translate(0.799011 0.000488281)"/>
</clipPath>
</defs>
</svg>
