<svg width="20" height="21" viewBox="0 0 20 21" fill="none" xmlns="http://www.w3.org/2000/svg">
<g clip-path="url(#clip0_190_2016)">
<path d="M20 9.79505C19.9706 8.09079 19.4991 6.42316 18.6315 4.95595C17.764 3.48874 16.5301 2.27229 15.0509 1.42533C13.4654 0.452761 11.6254 -0.0236341 9.7671 0.0571472C8.38117 0.0808159 7.01599 0.397904 5.7615 0.987511C4.50702 1.57712 3.39172 2.42565 2.48908 3.4776C1.18441 4.93877 0.352239 6.76054 0.101892 8.70335C0.101892 8.93625 0.101892 9.1837 0 9.43115V10.6828C0 11.0467 0.101893 11.4252 0.160117 11.8036C0.539027 13.883 1.56244 15.7906 3.08545 17.2561C4.60846 18.7216 6.55389 19.671 8.64629 19.9697L9.38865 20.0571H10.6405C11.0044 20.0571 11.3683 19.9696 11.7322 19.8969C13.153 19.6621 14.5054 19.1198 15.6947 18.3076C16.884 17.4955 17.8814 16.4332 18.6172 15.1953C19.6045 13.594 20.0864 11.7325 20 9.85333M12.5036 10.45H10.8734V16.2724H8.47162V10.45H7.32169V8.38316H8.45706C8.45706 8.15026 8.45706 7.93198 8.45706 7.71364C8.42768 7.31632 8.42768 6.91727 8.45706 6.51994C8.51094 6.00906 8.75185 5.53623 9.13343 5.19227C9.51501 4.84832 10.0103 4.65749 10.524 4.65673C11.2082 4.65673 11.9068 4.65673 12.6055 4.65673V6.63651H11.3246C11.2591 6.63253 11.1935 6.64187 11.1318 6.66422C11.0701 6.68658 11.0137 6.72121 10.966 6.76622C10.9182 6.81122 10.8802 6.86552 10.8543 6.92578C10.8283 6.98604 10.815 7.05101 10.8151 7.11661C10.8151 7.53874 10.8151 7.96105 10.8151 8.39773H12.6492C12.5764 9.08186 12.5036 9.7513 12.4454 10.4354" fill="white"/>
</g>
<defs>
<clipPath id="clip0_190_2016">
<rect width="20" height="20" fill="white" transform="translate(0 0.0561523)"/>
</clipPath>
</defs>
</svg>
