<svg width="33" height="33" viewBox="0 0 33 33" fill="none" xmlns="http://www.w3.org/2000/svg">
<g id="grade">
<mask id="mask0_190_1902" style="mask-type:alpha" maskUnits="userSpaceOnUse" x="0" y="0" width="33" height="33">
<rect id="Bounding box" x="0.5" y="0.0564575" width="32" height="32" fill="#2785E2"/>
</mask>
<g mask="url(#mask0_190_1902)">
<path id="grade_2" d="M9.89999 28.1231C9.65554 28.3231 9.39443 28.3342 9.11665 28.1565C8.83888 27.9787 8.75554 27.7342 8.86665 27.4231L11.3667 19.2565L4.86665 14.5898C4.59999 14.412 4.51665 14.1676 4.61665 13.8565C4.71665 13.5454 4.92221 13.3898 5.23332 13.3898H13.3L15.8667 4.85647C15.9111 4.67869 15.9944 4.55647 16.1167 4.4898C16.2389 4.42313 16.3667 4.3898 16.5 4.3898C16.6333 4.3898 16.7611 4.42313 16.8833 4.4898C17.0055 4.55647 17.0889 4.67869 17.1333 4.85647L19.7 13.3898H27.7667C28.0778 13.3898 28.2833 13.5454 28.3833 13.8565C28.4833 14.1676 28.4 14.412 28.1333 14.5898L21.6333 19.2565L24.1333 27.4231C24.2444 27.7342 24.1611 27.9787 23.8833 28.1565C23.6055 28.3342 23.3444 28.3231 23.1 28.1231L16.5 23.1231L9.89999 28.1231Z" fill="#2785E2"/>
</g>
</g>
</svg>
