<svg width="20" height="21" viewBox="0 0 20 21" fill="none" xmlns="http://www.w3.org/2000/svg">
<g clip-path="url(#clip0_190_2019)">
<path d="M15.5549 0.0561524H4.44509C3.86137 0.0561046 3.28336 0.171033 2.74406 0.39438C2.20476 0.617727 1.71473 0.945112 1.30196 1.35785C0.88919 1.77058 0.561761 2.26058 0.33837 2.79987C0.114979 3.33915 -1.95353e-09 3.91716 0 4.50088V15.6111C0 16.79 0.468321 17.9206 1.30194 18.7542C2.13555 19.5878 3.26618 20.0562 4.44509 20.0562H15.5549C16.7338 20.0562 17.8644 19.5878 18.6981 18.7542C19.5317 17.9206 20 16.79 20 15.6111V4.50088C20 3.91716 19.885 3.33915 19.6616 2.79987C19.4382 2.26058 19.1108 1.77058 18.698 1.35785C18.2853 0.945112 17.7952 0.617727 17.2559 0.39438C16.7166 0.171033 16.1386 0.0561046 15.5549 0.0561524ZM17.4069 13.2976C17.4068 14.4023 16.9679 15.4617 16.1867 16.2428C15.4056 17.0239 14.3461 17.4627 13.2415 17.4627H6.75854C5.65386 17.4627 4.59442 17.0239 3.81325 16.2428C3.03209 15.4617 2.59319 14.4023 2.59309 13.2976V6.81469C2.59309 5.70995 3.03195 4.65045 3.81313 3.86927C4.5943 3.0881 5.6538 2.64925 6.75854 2.64925H13.2415C14.3462 2.64925 15.4057 3.0881 16.1869 3.86927C16.968 4.65045 17.4069 5.70995 17.4069 6.81469V13.2976Z" fill="white"/>
<path d="M10 12.5358C11.3695 12.5358 12.4797 11.4256 12.4797 10.0562C12.4797 8.68671 11.3695 7.57654 10 7.57654C8.63056 7.57654 7.52039 8.68671 7.52039 10.0562C7.52039 11.4256 8.63056 12.5358 10 12.5358Z" fill="white"/>
<path d="M16.0654 6.83584C16.0171 5.80275 15.5854 5.15257 15.312 4.87875C14.4004 3.94311 13.3549 3.94312 9.99999 3.94312C6.64508 3.94312 5.6 3.94311 4.688 4.87875C4.41454 5.15257 3.9829 5.80275 3.93454 6.83584C3.88617 7.86894 3.86181 9.63185 3.87345 10.0573C3.86145 10.4828 3.88581 12.2453 3.93454 13.2784C3.98326 14.3115 4.41454 14.962 4.688 15.2355C5.59963 16.1715 6.64508 16.1715 9.99999 16.1715C13.3549 16.1715 14.4 16.1715 15.312 15.2355C15.5854 14.962 16.0171 14.3115 16.0654 13.2784C16.1138 12.2453 16.1382 10.4828 16.1265 10.0573C16.1385 9.63076 16.1142 7.86821 16.0654 6.83584ZM9.99999 13.8809C9.24345 13.8809 8.50389 13.6566 7.87485 13.2363C7.24581 12.8159 6.75554 12.2185 6.46604 11.5196C6.17653 10.8206 6.10081 10.0515 6.24843 9.30947C6.39605 8.56746 6.76039 7.88591 7.29537 7.35097C7.83036 6.81604 8.51196 6.45175 9.25398 6.3042C9.996 6.15665 10.7651 6.23245 11.464 6.52202C12.163 6.81159 12.7604 7.30193 13.1806 7.93101C13.6009 8.56009 13.8252 9.29966 13.8251 10.0562C13.825 11.0706 13.4219 12.0435 12.7046 12.7607C11.9873 13.478 11.0144 13.8809 9.99999 13.8809ZM13.9385 6.96857C13.7622 6.96864 13.5897 6.9164 13.443 6.81845C13.2964 6.72051 13.182 6.58126 13.1145 6.41832C13.047 6.25538 13.0293 6.07607 13.0637 5.90308C13.098 5.73008 13.183 5.57117 13.3077 5.44645C13.4324 5.32173 13.5913 5.2368 13.7643 5.20241C13.9373 5.16802 14.1166 5.18571 14.2796 5.25324C14.4425 5.32077 14.5817 5.43511 14.6797 5.5818C14.7776 5.72848 14.8299 5.90092 14.8298 6.0773C14.8298 6.19434 14.8068 6.31024 14.762 6.41837C14.7172 6.52651 14.6515 6.62476 14.5688 6.70752C14.486 6.79029 14.3877 6.85593 14.2796 6.90072C14.1715 6.94551 14.0556 6.96857 13.9385 6.96857Z" fill="white"/>
</g>
<defs>
<clipPath id="clip0_190_2019">
<rect width="20" height="20" fill="white" transform="translate(0 0.0561523)"/>
</clipPath>
</defs>
</svg>
