<svg width="29" height="32" viewBox="0 0 29 32" fill="none" xmlns="http://www.w3.org/2000/svg">
<mask id="mask0_3_668" style="mask-type:alpha" maskUnits="userSpaceOnUse" x="0" y="0" width="29" height="32">
<rect x="28.7636" y="32" width="28.7636" height="32" transform="rotate(-180 28.7636 32)" fill="white"/>
</mask>
<g mask="url(#mask0_3_668)">
<path d="M11.6253 7.59993C11.845 7.84438 11.9549 8.15549 11.9549 8.53327C11.9549 8.91104 11.845 9.22216 11.6253 9.4666L6.9512 14.6666L25.1682 14.6666C25.5077 14.6666 25.7924 14.7944 26.0221 15.0499C26.2518 15.3055 26.3666 15.6222 26.3666 15.9999C26.3666 16.3777 26.2518 16.6944 26.0221 16.9499C25.7924 17.2055 25.5077 17.3333 25.1682 17.3333L6.9512 17.3333L11.6253 22.5333C11.845 22.7777 11.9549 23.0888 11.9549 23.4666C11.9549 23.8444 11.845 24.1555 11.6253 24.3999C11.4056 24.6444 11.1259 24.7666 10.7863 24.7666C10.4468 24.7666 10.1671 24.6444 9.94741 24.3999L3.2359 16.9333C3.11605 16.7999 3.03116 16.6555 2.98122 16.4999C2.93128 16.3444 2.90632 16.1777 2.90632 15.9999C2.90632 15.8222 2.93128 15.6555 2.98122 15.4999C3.03116 15.3444 3.11605 15.1999 3.2359 15.0666L9.94741 7.59993C10.1671 7.35549 10.4468 7.23327 10.7864 7.23327C11.1259 7.23327 11.4056 7.35549 11.6253 7.59993Z" fill="black"/>
</g>
</svg>
