<svg width="24" height="25" viewBox="0 0 24 25" fill="none" xmlns="http://www.w3.org/2000/svg">
<g id="mail">
<mask id="mask0_190_2011" style="mask-type:alpha" maskUnits="userSpaceOnUse" x="0" y="0" width="24" height="25">
<rect id="Bounding box" y="0.0561523" width="24" height="24" fill="#D9D9D9"/>
</mask>
<g mask="url(#mask0_190_2011)">
<path id="mail_2" d="M4.30773 19.5561C3.8026 19.5561 3.37503 19.3811 3.02503 19.0311C2.67503 18.6811 2.50003 18.2535 2.50003 17.7484V6.36385C2.50003 5.85872 2.67503 5.43115 3.02503 5.08115C3.37503 4.73115 3.8026 4.55615 4.30773 4.55615H19.6923C20.1974 4.55615 20.625 4.73115 20.975 5.08115C21.325 5.43115 21.5 5.85872 21.5 6.36385V17.7484C21.5 18.2535 21.325 18.6811 20.975 19.0311C20.625 19.3811 20.1974 19.5561 19.6923 19.5561H4.30773ZM12 12.6138L20 7.4984L19.8462 6.05613L12 11.0561L4.15386 6.05613L4.00001 7.4984L12 12.6138Z" fill="white"/>
</g>
</g>
</svg>
