<svg width="162" height="40" viewBox="0 0 162 40" fill="none" xmlns="http://www.w3.org/2000/svg">
<g id="Frame" clip-path="url(#clip0_184_1189)">
<g id="Group">
<g id="Layer 1">
<path id="Vector" d="M78.1141 8.55298H88.1812V12.5825H78.4036C78.1917 12.5684 77.9791 12.5973 77.7787 12.6677C77.5783 12.738 77.3942 12.8481 77.2375 12.9915C77.105 13.1198 77.0003 13.2739 76.93 13.4444C76.8596 13.6148 76.8251 13.7979 76.8285 13.9823C76.8276 14.3123 76.9412 14.6324 77.1499 14.8881C77.3793 15.1688 77.6965 15.3643 78.0503 15.4432L85.0256 17.0768C86.4652 17.4097 87.564 18.0755 88.3219 19.0743C89.0742 20.0402 89.4794 21.2313 89.4721 22.4556C89.4944 23.9372 88.9334 25.3682 87.9102 26.44C86.869 27.5609 85.424 28.1205 83.5753 28.1187H73.0938V24.0494H83.4239C83.6426 24.058 83.8607 24.0209 84.0642 23.9404C84.2678 23.8599 84.4522 23.7378 84.6059 23.5819C84.7502 23.4413 84.8647 23.2732 84.9427 23.0874C85.0208 22.9017 85.0607 22.7022 85.0601 22.5008C85.0601 21.7039 84.6218 21.2081 83.7453 21.0133L76.7408 19.3505C75.3242 18.9964 74.2351 18.3296 73.4737 17.3504C72.7313 16.4176 72.3293 15.2594 72.3342 14.0673C72.3127 12.6221 72.8637 11.2271 73.8668 10.1866C74.885 9.09928 76.3008 8.55475 78.1141 8.55298Z" fill="#141414"/>
<path id="Vector_2" d="M110.347 25.5847C108.451 27.5326 105.965 28.5066 102.891 28.5066C99.8172 28.5066 97.331 27.5326 95.4326 25.5847C93.5361 23.6262 92.5878 21.2179 92.5878 18.3598C92.5878 15.5017 93.5414 13.0801 95.4486 11.095C97.3557 9.10819 99.8349 8.11566 102.886 8.11743C105.937 8.1192 108.416 9.11173 110.323 11.095C112.229 13.0801 113.182 15.5017 113.182 18.3598C113.182 21.2179 112.237 23.6262 110.347 25.5847ZM98.4846 22.6629C99.5932 23.8582 101.062 24.4567 102.891 24.4585C104.721 24.4603 106.189 23.8662 107.298 22.6762C108.369 21.481 108.961 19.9327 108.961 18.3279C108.961 16.7232 108.369 15.1749 107.298 13.9797C106.188 12.7915 104.719 12.1983 102.891 12.2C101.064 12.2018 99.5949 12.795 98.4846 13.9797C97.4125 15.1716 96.8192 16.7181 96.8192 18.3213C96.8192 19.9245 97.4125 21.471 98.4846 22.6629Z" fill="#141414"/>
<path id="Vector_3" d="M117.362 28.1081V8.55298H121.538V24.0494H131.576V28.1054L117.362 28.1081Z" fill="#141414"/>
<path id="Vector_4" d="M135.316 28.1081V8.55298H143.55C146.447 8.55298 148.838 9.46761 150.722 11.2969C152.606 13.1261 153.55 15.4512 153.553 18.2721V18.3598C153.553 21.1807 152.61 23.511 150.722 25.3509C148.834 27.1908 146.444 28.1098 143.55 28.1081H135.316ZM143.486 12.5825H139.459V24.0494H143.486C145.218 24.0494 146.624 23.5243 147.704 22.4742C148.785 21.4241 149.324 20.0518 149.322 18.3571V18.2694C149.322 16.5765 148.783 15.205 147.704 14.155C146.626 13.1049 145.22 12.5807 143.486 12.5825Z" fill="#141414"/>
<path id="Vector_5" d="M157.737 28.1081V8.55298H161.881V28.1081H157.737Z" fill="#141414"/>
<path id="Vector_6" d="M40.6455 26.9526V33.8402C40.6478 34.0953 40.5976 34.3482 40.4979 34.5831C40.3983 34.818 40.2514 35.0298 40.0664 35.2055H63.9724C64.0562 35.2055 64.1366 35.1722 64.1959 35.1129C64.2552 35.0536 64.2885 34.9733 64.2885 34.8894V26.9526H40.6455Z" fill="#F2382F"/>
<path id="Vector_7" d="M64.2858 18.0728H40.6454V26.9445H64.2858V18.0728Z" fill="#FCD515"/>
<path id="Vector_8" d="M40.6454 18.102H64.2858V12.4974C64.2873 12.4453 64.2757 12.3937 64.252 12.3472C64.2283 12.3008 64.1934 12.2611 64.1503 12.2317L59.988 9.34444C59.945 9.31578 59.9103 9.27642 59.8871 9.23022H40.6454V18.102Z" fill="#3BB257"/>
<path id="Vector_9" d="M59.5444 3.18218H55.5601C55.4763 3.18218 55.3959 3.21547 55.3366 3.27475C55.2773 3.33403 55.244 3.41443 55.244 3.49827V6.02963L48.1254 1.07314C48.0721 1.03694 48.0092 1.01758 47.9447 1.01758C47.8803 1.01758 47.8174 1.03694 47.7641 1.07314L40.6454 6.03495V9.25695H59.9137C59.8788 9.20614 59.8603 9.1459 59.8605 9.08429V3.50623C59.8616 3.46405 59.8542 3.42209 59.8388 3.38282C59.8234 3.34354 59.8003 3.30775 59.7708 3.27755C59.7414 3.24735 59.7062 3.22336 59.6673 3.20698C59.6284 3.1906 59.5866 3.18216 59.5444 3.18218Z" fill="#2785E2"/>
<path id="Vector_10" opacity="0.15" d="M44.6378 3.25122V35.2055H40.0664C40.2498 35.0314 40.3957 34.8217 40.4953 34.5892C40.5949 34.3567 40.646 34.1064 40.6455 33.8535V6.03493L44.6378 3.25122Z" fill="black"/>
<path id="Vector_11" d="M30.1321 26.9526V33.8402C30.1321 34.3333 30.328 34.8063 30.6767 35.155C31.0254 35.5037 31.4984 35.6996 31.9915 35.6996H38.7622C39.2566 35.6996 39.7309 35.5041 40.0817 35.1558C40.4325 34.8075 40.6313 34.3346 40.6348 33.8402V26.9526H30.1321Z" fill="#F2382F"/>
<path id="Vector_12" d="M40.6455 18.0728H30.1321V26.9445H40.6455V18.0728Z" fill="#FCD515"/>
<path id="Vector_13" d="M40.6455 9.23022H30.1321V18.102H40.6455V9.23022Z" fill="#3BB257"/>
<path id="Vector_14" d="M38.7728 0.940096H32.0021C31.509 0.940096 31.036 1.13599 30.6873 1.48468C30.3387 1.83338 30.1428 2.30632 30.1428 2.79945V9.23812H40.6561V2.81805C40.6586 2.57029 40.6115 2.32452 40.5177 2.0952C40.4239 1.86588 40.2852 1.65763 40.1097 1.48267C39.9343 1.30772 39.7256 1.1696 39.496 1.07643C39.2665 0.983249 39.0206 0.936898 38.7728 0.940096Z" fill="#2785E2"/>
<path id="Vector_15" style="mix-blend-mode:multiply" opacity="0.3" d="M38.7755 0.948242H32.0021C30.9694 0.948242 30.1321 1.78546 30.1321 2.81822V33.8429C30.1321 34.8756 30.9694 35.7128 32.0021 35.7128H38.7755C39.8082 35.7128 40.6455 34.8756 40.6455 33.8429V2.81822C40.6455 1.78546 39.8082 0.948242 38.7755 0.948242Z" fill="url(#paint0_linear_184_1189)"/>
<path id="Vector_16" d="M0.332028 15.0182L14.9651 15.7593V20.5962L0.332028 21.3373C0.289197 21.3395 0.246372 21.3329 0.206164 21.318C0.165955 21.3031 0.129202 21.2801 0.0981413 21.2506C0.0670804 21.221 0.0423623 21.1854 0.02549 21.146C0.00861775 21.1066 -5.42922e-05 21.0641 2.55741e-07 21.0212V15.3236C0.00135766 15.2817 0.0110676 15.2404 0.0285663 15.2022C0.0460649 15.164 0.0710015 15.1297 0.101915 15.1012C0.132828 15.0728 0.169097 15.0508 0.208608 15.0365C0.248118 15.0223 0.290077 15.016 0.332028 15.0182ZM37.5696 0.940215V0.624125C37.5696 0.45646 37.503 0.29566 37.3844 0.177104C37.2658 0.058547 37.105 -0.00805664 36.9374 -0.00805664H33.8376C33.7547 -0.00805738 33.6726 0.00830752 33.596 0.04011C33.5195 0.0719125 33.45 0.118528 33.3915 0.177266C33.333 0.236004 33.2867 0.305716 33.2552 0.3824C33.2237 0.459084 33.2077 0.541231 33.208 0.624125V0.940215H37.5696ZM37.5696 35.7048H33.208V36.0209C33.2082 36.1465 33.2451 36.2693 33.3143 36.3742C33.3382 36.4061 33.3648 36.4379 33.3913 36.4671C33.5096 36.5858 33.6701 36.6527 33.8376 36.6531H34.8363V37.4499C34.8363 37.8254 34.6871 38.1855 34.4216 38.451C34.1561 38.7165 33.796 38.8657 33.4206 38.8657H27.7734C27.3977 38.8657 27.0373 38.7166 26.7714 38.4512C26.5055 38.1858 26.3557 37.8257 26.355 37.4499V19.9906C26.3543 19.3138 26.0851 18.665 25.6066 18.1864C25.128 17.7079 24.4792 17.4387 23.8024 17.438H18.0543V15.4458C18.0545 15.3941 18.042 15.3432 18.0179 15.2974C17.9938 15.2517 17.9589 15.2125 17.9161 15.1834C17.8734 15.1543 17.8242 15.1361 17.7728 15.1305C17.7214 15.1248 17.6694 15.1319 17.6214 15.151L16.0993 15.7593V20.5776L17.6214 21.1859C17.6694 21.205 17.7214 21.2121 17.7728 21.2064C17.8242 21.2008 17.8734 21.1826 17.9161 21.1535C17.9589 21.1244 17.9938 21.0852 18.0179 21.0395C18.042 20.9937 18.0545 20.9428 18.0543 20.8911V18.5749H23.8024C24.1779 18.5749 24.538 18.724 24.8035 18.9895C25.069 19.255 25.2181 19.6151 25.2181 19.9906V37.4473C25.2188 38.1245 25.4884 38.7738 25.9675 39.2524C26.4466 39.7311 27.0962 39.9999 27.7734 39.9999H33.4259C34.1026 39.9992 34.7515 39.73 35.2301 39.2515C35.7086 38.7729 35.9778 38.1241 35.9785 37.4473V36.6504H36.9427C37.0257 36.6505 37.1079 36.6341 37.1845 36.6022C37.2611 36.5703 37.3306 36.5235 37.3889 36.4645C37.4168 36.4354 37.4425 36.4043 37.466 36.3715C37.5371 36.2675 37.5751 36.1443 37.5749 36.0182L37.5696 35.7048Z" fill="#141414"/>
</g>
</g>
</g>
<defs>
<linearGradient id="paint0_linear_184_1189" x1="30.1321" y1="18.3305" x2="40.6455" y2="18.3305" gradientUnits="userSpaceOnUse">
<stop stop-color="white" stop-opacity="0"/>
<stop offset="1"/>
</linearGradient>
<clipPath id="clip0_184_1189">
<rect width="161.873" height="40" fill="white"/>
</clipPath>
</defs>
</svg>
