<svg width="24" height="25" viewBox="0 0 24 25" fill="none" xmlns="http://www.w3.org/2000/svg">
<g id="phone_android">
<mask id="mask0_190_2006" style="mask-type:alpha" maskUnits="userSpaceOnUse" x="0" y="0" width="24" height="25">
<rect id="Bounding box" y="0.0561523" width="24" height="24" fill="#D9D9D9"/>
</mask>
<g mask="url(#mask0_190_2006)">
<path id="phone_android_2" d="M10.1154 19.883H13.8846V18.9984H10.1154V19.883ZM7.30773 22.5561C6.8026 22.5561 6.37503 22.3811 6.02503 22.0311C5.67503 21.6811 5.50003 21.2535 5.50003 20.7484V3.36385C5.50003 2.85872 5.67503 2.43115 6.02503 2.08115C6.37503 1.73115 6.8026 1.55615 7.30773 1.55615H16.6923C17.1974 1.55615 17.625 1.73115 17.975 2.08115C18.325 2.43115 18.5 2.85872 18.5 3.36385V20.7484C18.5 21.2535 18.325 21.6811 17.975 22.0311C17.625 22.3811 17.1974 22.5561 16.6923 22.5561H7.30773ZM7.00001 16.3254H17V5.8061H7.00001V16.3254Z" fill="white"/>
</g>
</g>
</svg>
