<svg width="24" height="25" viewBox="0 0 24 25" fill="none" xmlns="http://www.w3.org/2000/svg">
<g id="pin_drop">
<mask id="mask0_190_2001" style="mask-type:alpha" maskUnits="userSpaceOnUse" x="0" y="0" width="24" height="25">
<rect id="Bounding box" y="0.0561523" width="24" height="24" fill="#D9D9D9"/>
</mask>
<g mask="url(#mask0_190_2001)">
<path id="pin_drop_2" d="M12 18.7484C9.73331 17.06 8.04165 15.4247 6.925 13.8427C5.80833 12.2606 5.25 10.715 5.25 9.20598C5.25 8.06616 5.45448 7.06681 5.86345 6.20793C6.27243 5.34905 6.7985 4.62922 7.44165 4.04845C8.0848 3.46769 8.80834 3.03211 9.61228 2.74173C10.4162 2.45134 11.2121 2.30615 12 2.30615C12.7878 2.30615 13.5837 2.45134 14.3877 2.74173C15.1916 3.03211 15.9151 3.46769 16.5583 4.04845C17.2015 4.62922 17.7275 5.34905 18.1365 6.20793C18.5455 7.06681 18.75 8.06616 18.75 9.20598C18.75 10.715 18.1916 12.2606 17.075 13.8427C15.9583 15.4247 14.2666 17.06 12 18.7484ZM12 10.8061C12.4859 10.8061 12.899 10.6359 13.2394 10.2955C13.5798 9.95516 13.75 9.54203 13.75 9.05613C13.75 8.57023 13.5798 8.1571 13.2394 7.81673C12.899 7.47635 12.4859 7.30615 12 7.30615C11.5141 7.30615 11.1009 7.47635 10.7606 7.81673C10.4202 8.1571 10.25 8.57023 10.25 9.05613C10.25 9.54203 10.4202 9.95516 10.7606 10.2955C11.1009 10.6359 11.5141 10.8061 12 10.8061ZM5.25 21.8061V20.3062H18.75V21.8061H5.25Z" fill="white"/>
</g>
</g>
</svg>
