<svg width="23" height="18" viewBox="0 0 23 18" fill="none" xmlns="http://www.w3.org/2000/svg">
<path d="M14.2051 17.4001C14.001 17.1556 13.899 16.8445 13.899 16.4667C13.899 16.089 14.001 15.7778 14.2051 15.5334L18.5453 10.3334L1.62954 10.3334C1.31423 10.3334 1.04992 10.2056 0.836615 9.95007C0.623313 9.69451 0.516663 9.37784 0.516663 9.00007C0.516663 8.62229 0.623313 8.30562 0.836615 8.05007C1.04992 7.79451 1.31423 7.66673 1.62954 7.66673L18.5453 7.66673L14.2051 2.46673C14.001 2.22229 13.899 1.91118 13.899 1.5334C13.899 1.15562 14.001 0.84451 14.2051 0.600065C14.4091 0.355621 14.6688 0.233398 14.9841 0.233398C15.2994 0.233398 15.5591 0.355621 15.7631 0.600065L21.9952 8.06673C22.1065 8.20007 22.1853 8.34451 22.2317 8.50007C22.2781 8.65562 22.3013 8.82229 22.3013 9.00007C22.3013 9.17784 22.2781 9.34451 22.2317 9.50007C22.1853 9.65562 22.1065 9.80007 21.9952 9.9334L15.7631 17.4001C15.5591 17.6445 15.2994 17.7667 14.9841 17.7667C14.6688 17.7667 14.4091 17.6445 14.2051 17.4001Z" fill="black"/>
</svg>
